<svg width="30" height="30" viewBox="0 0 30 30" fill="none" xmlns="http://www.w3.org/2000/svg">
<path d="M3.86718 2.8125C3.09018 2.8125 2.345 3.12116 1.79557 3.67059C1.24615 4.22001 0.937489 4.96519 0.937489 5.74219V13.125H0.939364C0.937972 13.164 0.937347 13.2031 0.937489 13.2422V26.1816C0.937489 26.9586 1.24615 27.7037 1.79557 28.2532C2.345 28.8026 3.09018 29.1112 3.86718 29.1112H26.1328C26.9098 29.1112 27.655 28.8026 28.2044 28.2532C28.7538 27.7037 29.0625 26.9586 29.0625 26.1816V13.2422C29.0625 13.2028 29.0625 13.1634 29.0597 13.125H29.0625V9.50344C29.0625 8.72644 28.7538 7.98126 28.2044 7.43184C27.655 6.88241 26.9098 6.57375 26.1328 6.57375H15.8316C15.5522 6.57375 15.2841 6.46312 15.0862 6.26531L12.7641 3.945C12.4051 3.58586 11.979 3.30098 11.5099 3.10665C11.0408 2.91233 10.538 2.81237 10.0303 2.8125H3.86718ZM27.1875 10.5084C26.851 10.3786 26.4934 10.3122 26.1328 10.3125H3.86718C3.50652 10.312 3.14891 10.3785 2.81249 10.5084V5.74219C2.81249 5.16 3.28499 4.6875 3.86718 4.6875H10.0303C10.5591 4.6875 11.0653 4.8975 11.4384 5.27063L13.7606 7.59187C14.31 8.14031 15.0544 8.44875 15.8325 8.44875H26.1328C26.7159 8.44875 27.1875 8.92125 27.1875 9.50344V10.5084ZM2.81249 13.2422C2.81249 12.66 3.28499 12.1875 3.86718 12.1875H26.1328C26.7159 12.1875 27.1875 12.66 27.1875 13.2422V26.1816C27.1875 26.7647 26.7159 27.2362 26.1328 27.2362H3.86718C3.58746 27.2362 3.31919 27.1251 3.1214 26.9273C2.92361 26.7295 2.81249 26.4613 2.81249 26.1816V13.2422Z" fill="#90A0B7"/>
</svg>
